name Walk5.mot
datacolumns 19
datarows 10
range 3.04300000 3.05200000
endheader

                time	   L_ground_force_vx	   L_ground_force_vy	   L_ground_force_vz	   L_ground_force_px	   L_ground_force_py	   L_ground_force_pz	   R_ground_force_vx	   R_ground_force_vy	   R_ground_force_vz	   R_ground_force_px	   R_ground_force_py	   R_ground_force_pz	   L_ground_torque_x	   L_ground_torque_y	   L_ground_torque_z	   R_ground_torque_x	   R_ground_torque_y	   R_ground_torque_z	
          3.04300000	          0.02960506	          0.07622716	         -0.00391848	         -0.00035475	          0.00000000	         -0.00013180	        -27.80403116	        743.42596583	        -54.38757062	          0.20965134	          0.00000000	          0.09869786	          0.00000000	          0.00020720	          0.00000000	          0.00000000	          9.05999102	          0.00000000	
          3.04400000	          0.02719359	          0.06951947	         -0.00383886	         -0.00034382	          0.00000000	         -0.00012816	        -27.53018664	        742.24949271	        -54.26741670	          0.21005698	          0.00000000	          0.09875932	          0.00000000	          0.00020186	          0.00000000	          0.00000000	          9.01285553	          0.00000000	
          3.04500000	          0.02488439	          0.06311940	         -0.00375151	         -0.00033252	          0.00000000	         -0.00012434	        -27.25731488	        741.08072397	        -54.15197487	          0.21046162	          0.00000000	          0.09882084	          0.00000000	          0.00019621	          0.00000000	          0.00000000	          8.96619653	          0.00000000	
          3.04600000	          0.02267750	          0.05702497	         -0.00365741	         -0.00032093	          0.00000000	         -0.00012038	        -26.98542930	        739.92022593	        -54.04105655	          0.21086519	          0.00000000	          0.09888242	          0.00000000	          0.00019030	          0.00000000	          0.00000000	          8.92001525	          0.00000000	
          3.04700000	          0.02057256	          0.05123324	         -0.00355748	         -0.00030911	          0.00000000	         -0.00011630	        -26.71454194	        738.76857864	        -53.93446561	          0.21126763	          0.00000000	          0.09894405	          0.00000000	          0.00018417	          0.00000000	          0.00000000	          8.87431098	          0.00000000	
          3.04800000	          0.01856884	          0.04574034	         -0.00345261	         -0.00029713	          0.00000000	         -0.00011212	        -26.44466163	        737.62637398	        -53.83199965	          0.21166887	          0.00000000	          0.09900570	          0.00000000	          0.00017786	          0.00000000	          0.00000000	          8.82908177	          0.00000000	
          3.04900000	          0.01666533	          0.04054163	         -0.00334361	         -0.00028504	          0.00000000	         -0.00010788	        -26.17579241	        736.49421575	        -53.73345127	          0.21206882	          0.00000000	          0.09906738	          0.00000000	          0.00017142	          0.00000000	          0.00000000	          8.78432511	          0.00000000	
          3.05000000	          0.01486068	          0.03563174	         -0.00323125	         -0.00027291	          0.00000000	         -0.00010359	        -25.90793272	        735.37272130	        -53.63860919	          0.21246742	          0.00000000	          0.09912906	          0.00000000	          0.00016488	          0.00000000	          0.00000000	          8.74003827	          0.00000000	
          3.05100000	          0.01315332	          0.03100466	         -0.00311622	         -0.00026077	          0.00000000	         -0.00009927	        -25.64107560	        734.26252324	        -53.54725910	          0.21286459	          0.00000000	          0.09919074	          0.00000000	          0.00015828	          0.00000000	          0.00000000	          8.69621831	          0.00000000	
          3.05200000	          0.01154142	          0.02665384	         -0.00299921	         -0.00024868	          0.00000000	         -0.00009495	        -25.37520941	        733.16427013	        -53.45918450	          0.21326023	          0.00000000	          0.09925241	          0.00000000	          0.00015163	          0.00000000	          0.00000000	          8.65286197	          0.00000000	
